# xmcd CD database file
#
# Track frame offsets:
#	150
#	38233
#	59299
#	86747
#	109283
#	129245
#	138212
#	156780
#	183818
#	213159
#	243327
#	259754
#	267505
#	286155
#	299116
#
# Disc length: 4346 seconds
#
# Revision: 0
# Processed by: cddbd v1.5.2PL0 Copyright (c) Steve Scherf et al.
# Submitted via: CDex 1.51
#
DISCID=de10f80f
DTITLE=Marc Moulin - Boxof [CD2)
DYEAR=2009
DGENRE=Jazz
TTITLE0=Into the dark (album long version)
TTITLE1=Every day is d-day
TTITLE2=Silver (who stole the groove ?)
TTITLE3=Bottle
TTITLE4=Where is it ?
TTITLE5=Promised land (live)
TTITLE6=Tuzi (demo)
TTITLE7=Le saule
TTITLE8=Disco (demo)
TTITLE9=N.W.
TTITLE10=Welcome to the club
TTITLE11=Misterioso
TTITLE12=Calligram
TTITLE13=Scat
TTITLE14=What ?
EXTD=YEAR: 2009
EXTT0=
EXTT1=
EXTT2=
EXTT3=
EXTT4=
EXTT5=
EXTT6=
EXTT7=
EXTT8=
EXTT9=
EXTT10=
EXTT11=
EXTT12=
EXTT13=
EXTT14=
PLAYORDER=
